<svg width="174" height="40" viewBox="0 0 174 40" fill="none" xmlns="http://www.w3.org/2000/svg">
<path d="M58.2462 14.456H52.6782V11.912H66.9582V14.456H61.3662V29H58.2462V14.456ZM73.5112 16.592C73.9752 16.592 74.3752 16.656 74.7112 16.784L74.6872 19.52C74.1752 19.312 73.6472 19.208 73.1032 19.208C72.0792 19.208 71.2952 19.504 70.7512 20.096C70.2232 20.688 69.9592 21.472 69.9592 22.448V29H66.9832V20.312C66.9832 19.032 66.9192 17.888 66.7912 16.88H69.5992L69.8392 19.016C70.1432 18.232 70.6232 17.632 71.2792 17.216C71.9352 16.8 72.6792 16.592 73.5112 16.592ZM87.7392 16.88V29H84.7872V27.056C84.4192 27.728 83.8912 28.256 83.2032 28.64C82.5152 29.008 81.7312 29.192 80.8512 29.192C79.7952 29.192 78.8592 28.936 78.0432 28.424C77.2272 27.912 76.5952 27.184 76.1472 26.24C75.6992 25.296 75.4752 24.2 75.4752 22.952C75.4752 21.704 75.6992 20.6 76.1472 19.64C76.6112 18.664 77.2512 17.912 78.0672 17.384C78.8832 16.84 79.8112 16.568 80.8512 16.568C81.7312 16.568 82.5152 16.76 83.2032 17.144C83.8912 17.512 84.4192 18.032 84.7872 18.704V16.88H87.7392ZM81.6672 26.84C82.6592 26.84 83.4272 26.496 83.9712 25.808C84.5152 25.12 84.7872 24.152 84.7872 22.904C84.7872 21.624 84.5152 20.64 83.9712 19.952C83.4272 19.264 82.6512 18.92 81.6432 18.92C80.6512 18.92 79.8752 19.28 79.3152 20C78.7712 20.704 78.4992 21.688 78.4992 22.952C78.4992 24.2 78.7712 25.16 79.3152 25.832C79.8752 26.504 80.6592 26.84 81.6672 26.84ZM96.7426 13.712C95.4466 13.712 94.7986 14.424 94.7986 15.848V16.88H97.5106V19.136H94.7986V29H91.7986V19.136H89.4946V16.88H91.7986V15.704C91.7986 14.264 92.1586 13.16 92.8786 12.392C93.6146 11.608 94.6626 11.216 96.0226 11.216C96.7746 11.216 97.4066 11.312 97.9186 11.504V13.88C97.4706 13.768 97.0786 13.712 96.7426 13.712ZM111.294 16.88V29H108.342V27.056C107.974 27.728 107.446 28.256 106.758 28.64C106.07 29.008 105.286 29.192 104.406 29.192C103.35 29.192 102.414 28.936 101.598 28.424C100.782 27.912 100.15 27.184 99.7019 26.24C99.2539 25.296 99.0299 24.2 99.0299 22.952C99.0299 21.704 99.2539 20.6 99.7019 19.64C100.166 18.664 100.806 17.912 101.622 17.384C102.438 16.84 103.366 16.568 104.406 16.568C105.286 16.568 106.07 16.76 106.758 17.144C107.446 17.512 107.974 18.032 108.342 18.704V16.88H111.294ZM105.222 26.84C106.214 26.84 106.982 26.496 107.526 25.808C108.07 25.12 108.342 24.152 108.342 22.904C108.342 21.624 108.07 20.64 107.526 19.952C106.982 19.264 106.206 18.92 105.198 18.92C104.206 18.92 103.43 19.28 102.87 20C102.326 20.704 102.054 21.688 102.054 22.952C102.054 24.2 102.326 25.16 102.87 25.832C103.43 26.504 104.214 26.84 105.222 26.84ZM114.561 11.336H117.537V29H114.561V11.336ZM132.531 16.88V28.616C132.531 30.504 132.011 31.936 130.971 32.912C129.931 33.888 128.403 34.376 126.387 34.376C124.515 34.376 122.867 33.984 121.443 33.2L121.923 30.92C123.395 31.688 124.859 32.072 126.315 32.072C128.475 32.072 129.555 31 129.555 28.856V26.456C129.187 27.112 128.651 27.648 127.947 28.064C127.243 28.464 126.451 28.664 125.571 28.664C124.515 28.664 123.571 28.416 122.739 27.92C121.923 27.408 121.283 26.696 120.819 25.784C120.371 24.856 120.147 23.8 120.147 22.616C120.147 21.432 120.371 20.384 120.819 19.472C121.283 18.544 121.923 17.832 122.739 17.336C123.571 16.824 124.515 16.568 125.571 16.568C126.467 16.568 127.259 16.76 127.947 17.144C128.651 17.512 129.187 18.032 129.555 18.704V16.88H132.531ZM126.363 26.312C127.355 26.312 128.131 25.984 128.691 25.328C129.267 24.672 129.555 23.768 129.555 22.616C129.555 21.464 129.275 20.56 128.715 19.904C128.155 19.248 127.371 18.92 126.363 18.92C125.371 18.92 124.587 19.248 124.011 19.904C123.451 20.56 123.171 21.464 123.171 22.616C123.171 23.768 123.451 24.672 124.011 25.328C124.587 25.984 125.371 26.312 126.363 26.312ZM147.364 16.88V29H144.412V27.056C144.044 27.728 143.516 28.256 142.828 28.64C142.14 29.008 141.356 29.192 140.476 29.192C139.42 29.192 138.484 28.936 137.668 28.424C136.852 27.912 136.22 27.184 135.772 26.24C135.324 25.296 135.1 24.2 135.1 22.952C135.1 21.704 135.324 20.6 135.772 19.64C136.236 18.664 136.876 17.912 137.692 17.384C138.508 16.84 139.436 16.568 140.476 16.568C141.356 16.568 142.14 16.76 142.828 17.144C143.516 17.512 144.044 18.032 144.412 18.704V16.88H147.364ZM141.292 26.84C142.284 26.84 143.052 26.496 143.596 25.808C144.14 25.12 144.412 24.152 144.412 22.904C144.412 21.624 144.14 20.64 143.596 19.952C143.052 19.264 142.276 18.92 141.268 18.92C140.276 18.92 139.5 19.28 138.94 20C138.396 20.704 138.124 21.688 138.124 22.952C138.124 24.2 138.396 25.16 138.94 25.832C139.5 26.504 140.284 26.84 141.292 26.84ZM157.16 16.592C157.624 16.592 158.024 16.656 158.36 16.784L158.336 19.52C157.824 19.312 157.296 19.208 156.752 19.208C155.728 19.208 154.944 19.504 154.4 20.096C153.872 20.688 153.608 21.472 153.608 22.448V29H150.632V20.312C150.632 19.032 150.568 17.888 150.44 16.88H153.248L153.488 19.016C153.792 18.232 154.272 17.632 154.928 17.216C155.584 16.8 156.328 16.592 157.16 16.592Z" fill="#233348"/>
<ellipse cx="20.3653" cy="20" rx="20.3653" ry="20" fill="#458FF6"/>
<path d="M18.344 14.244H12.312V11.488H27.782V14.244H21.724V30H18.344V14.244Z" fill="white"/>
</svg>
